<?xml version="1.0" encoding="UTF-8" standalone="no"?>
<!-- Created with Inkscape (http://www.inkscape.org/) -->

<svg
   width="256"
   height="256"
   viewBox="0 0 55.900957 55.900957"
   version="1.1"
   id="svg21534"
   xml:space="preserve"
   inkscape:version="1.2.2 (b0a8486541, 2022-12-01)"
   sodipodi:docname="icon.svg"
   xmlns:inkscape="http://www.inkscape.org/namespaces/inkscape"
   xmlns:sodipodi="http://sodipodi.sourceforge.net/DTD/sodipodi-0.dtd"
   xmlns="http://www.w3.org/2000/svg"
   xmlns:svg="http://www.w3.org/2000/svg"><sodipodi:namedview
     id="namedview21536"
     pagecolor="#ffffff"
     bordercolor="#111111"
     borderopacity="1"
     inkscape:showpageshadow="0"
     inkscape:pageopacity="0"
     inkscape:pagecheckerboard="1"
     inkscape:deskcolor="#d1d1d1"
     inkscape:document-units="px"
     showgrid="true"
     inkscape:zoom="5.1754899"
     inkscape:cx="158.82554"
     inkscape:cy="91.682142"
     inkscape:window-width="3777"
     inkscape:window-height="2093"
     inkscape:window-x="0"
     inkscape:window-y="0"
     inkscape:window-maximized="1"
     inkscape:current-layer="layer1"><inkscape:grid
       type="xygrid"
       id="grid23833"
       spacingx="3.4938098"
       spacingy="3.4938098"
       empspacing="4" /></sodipodi:namedview><defs
     id="defs21531" /><g
     inkscape:label="Layer 1"
     inkscape:groupmode="layer"
     id="layer1"><rect
       style="fill:#3e3e3e;fill-opacity:1;fill-rule:evenodd;stroke:none;stroke-width:1.78013;stroke-miterlimit:3.4;stroke-dasharray:none"
       id="rect26805"
       width="11.502316"
       height="2.2512667"
       x="33.344425"
       y="7.6690259"
       ry="0.28140834"
       rx="0.47926313" /><path
       style="fill:#3e3e3e;stroke:none;stroke-width:0.218363px;stroke-linecap:butt;stroke-linejoin:miter;stroke-opacity:1;fill-opacity:1"
       d="m 35.764667,9.9513013 c 0,0 -26.8581417,13.7987337 -28.0863506,14.9501437 -1.250042,1.171878 3.2347846,3.945325 3.2347846,3.945325 l 21.34979,14.934062 6.624567,0.453105 -27.599216,-17.304358 c 0,0 -0.603209,-0.08927 -0.600411,-0.762283 0.0028,-0.673015 27.32022,-16.4227356 27.32022,-16.4227356 z"
       id="path27381"
       sodipodi:nodetypes="csccccscc" /><path
       style="fill:#3e3e3e;stroke:none;stroke-width:0.218363px;stroke-linecap:butt;stroke-linejoin:miter;stroke-opacity:1;fill-opacity:1"
       d="M 10.97848,26.985751 40.537772,9.7943227 41.921795,9.7005084 11.210626,27.421377 Z"
       id="path27479" /><path
       style="fill:#3e3e3e;stroke:none;stroke-width:0.218363px;stroke-linecap:butt;stroke-linejoin:miter;stroke-opacity:1;fill-opacity:1"
       d="m 7.0509847,25.522367 c -0.8266141,1.386819 -2.4011783,4.48805 -2.4706357,4.90223 -0.069458,0.414182 0.4434324,0.513474 0.8491061,0.757041 C 5.835129,31.425204 19.33424,43.917182 19.33424,43.917182 l 0.324562,-0.539228 c 0,0 -14.2055729,-12.369493 -14.0644435,-12.868167 0.1411292,-0.498672 3.544896,-3.777392 3.544896,-3.777392 L 7.4596884,25.117508 Z"
       id="path27481" /><rect
       style="fill:#3e3e3e;fill-opacity:1;fill-rule:evenodd;stroke:none;stroke-width:2.11692;stroke-miterlimit:3.4;stroke-dasharray:none;stroke-opacity:1"
       id="rect27483"
       width="36.38942"
       height="3.6217353"
       x="13.953447"
       y="43.009739"
       rx="0.43672624"
       ry="0.43672624" /><path
       style="fill:none;stroke:#000000;stroke-width:0.218363px;stroke-linecap:butt;stroke-linejoin:miter;stroke-opacity:1"
       d="M -2.1119274,7.666599 H 64.179192"
       id="path27487" /></g></svg>
